# xmcd
#
# Track frame offsets: 
#        150
#        18025
#        34530
#        50640
#        69235
#        86898
#        103314
#        119222
#        135766
#        151986
#        168432
#        184146
#        202184
#        219243
#
# Disc length: 3181 seconds
#
# Revision: 1
# Processed by: cddbd v1.5.2PL0 Copyright (c) Steve Scherf et al.
# Submitted via: ExactAudioCopy v1.3
#
DISCID=c10c6b0e
DTITLE=Mike Bauhaus - Intensiv
DYEAR=2004
DGENRE=Discofox
TTITLE0=Verlang' ich zuviel
TTITLE1=Weit weg von mir
TTITLE2=Intensiv
TTITLE3=Jetzt erst recht
TTITLE4=Comment Ca Va
TTITLE5=Jetzt bist Du raus
TTITLE6=Wahnsinn, Dich zu lieben
TTITLE7=Angel Of Love
TTITLE8=Pure Lust am Leben
TTITLE9=Wo bist Du
TTITLE10=Wovon träumst Du denn
TTITLE11=Es tut mir leid
TTITLE12=Wenn Du willst, dann geh' doch
TTITLE13=Intensiv (Trance Mix)
EXTD=
EXTT0=
EXTT1=
EXTT2=
EXTT3=
EXTT4=
EXTT5=
EXTT6=
EXTT7=
EXTT8=
EXTT9=
EXTT10=
EXTT11=
EXTT12=
EXTT13=
PLAYORDER=
